REM DIRINDEX 1\2,1\3,1\4
REM DIRNAME folder01,folder02,folder03,folder04
TITLE ""
FILE "113 113_TOEFL_3900.mp3" MP3
  TRACK 01 AUDIO
    TITLE "2:cjc151_4930"
    INDEX 01 00:00:00
  TRACK 02 AUDIO
    TITLE "0:"
    INDEX 01 00:01:26
  TRACK 03 AUDIO
    TITLE "3:cjc151_4931"
    INDEX 01 00:03:08
  TRACK 04 AUDIO
    TITLE "0:"
    INDEX 01 00:08:26
  TRACK 05 AUDIO
    TITLE "2:cjc151_4932"
    INDEX 01 00:10:06
  TRACK 06 AUDIO
    TITLE "0:"
    INDEX 01 00:11:17
  TRACK 07 AUDIO
    TITLE "3:cjc151_4933"
    INDEX 01 00:12:61
  TRACK 08 AUDIO
    TITLE "0:"
    INDEX 01 00:16:48
  TRACK 09 AUDIO
    TITLE "2:cjc151_4934"
    INDEX 01 00:18:25
  TRACK 10 AUDIO
    TITLE "0:"
    INDEX 01 00:19:42
  TRACK 11 AUDIO
    TITLE "3:cjc151_4935"
    INDEX 01 00:21:21
  TRACK 12 AUDIO
    TITLE "0:"
    INDEX 01 00:25:25
  TRACK 13 AUDIO
    TITLE "2:cjc151_4936"
    INDEX 01 00:27:08
  TRACK 14 AUDIO
    TITLE "0:"
    INDEX 01 00:28:74
  TRACK 15 AUDIO
    TITLE "3:cjc151_4937"
    INDEX 01 00:30:54
  TRACK 16 AUDIO
    TITLE "0:"
    INDEX 01 00:34:24
  TRACK 17 AUDIO
    TITLE "2:cjc151_4938"
    INDEX 01 00:36:03
  TRACK 18 AUDIO
    TITLE "0:"
    INDEX 01 00:37:22
  TRACK 19 AUDIO
    TITLE "3:cjc151_4939"
    INDEX 01 00:39:02
  TRACK 20 AUDIO
    TITLE "0:"
    INDEX 01 00:42:39
  TRACK 21 AUDIO
    TITLE "2:cjc151_4940"
    INDEX 01 00:44:18
  TRACK 22 AUDIO
    TITLE "0:"
    INDEX 01 00:45:41
  TRACK 23 AUDIO
    TITLE "3:cjc151_4941"
    INDEX 01 00:47:21
  TRACK 24 AUDIO
    TITLE "0:"
    INDEX 01 00:51:36
  TRACK 25 AUDIO
    TITLE "2:cjc151_4942"
    INDEX 01 00:53:13
  TRACK 26 AUDIO
    TITLE "0:"
    INDEX 01 00:54:62
  TRACK 27 AUDIO
    TITLE "3:cjc151_4943"
    INDEX 01 00:56:39
  TRACK 28 AUDIO
    TITLE "0:"
    INDEX 01 01:01:11
  TRACK 29 AUDIO
    TITLE "2:cjc151_4944"
    INDEX 01 01:02:63
  TRACK 30 AUDIO
    TITLE "0:"
    INDEX 01 01:04:00
  TRACK 31 AUDIO
    TITLE "3:cjc151_4945"
    INDEX 01 01:05:54
  TRACK 32 AUDIO
    TITLE "0:"
    INDEX 01 01:08:44
  TRACK 33 AUDIO
    TITLE "2:cjc151_4946"
    INDEX 01 01:10:22
  TRACK 34 AUDIO
    TITLE "0:"
    INDEX 01 01:11:52
  TRACK 35 AUDIO
    TITLE "3:cjc151_4947"
    INDEX 01 01:13:32
  TRACK 36 AUDIO
    TITLE "0:"
    INDEX 01 01:17:61
  TRACK 37 AUDIO
    TITLE "2:cjc151_4948"
    INDEX 01 01:19:42
  TRACK 38 AUDIO
    TITLE "0:"
    INDEX 01 01:20:55
  TRACK 39 AUDIO
    TITLE "3:cjc151_4949"
    INDEX 01 01:22:35
  TRACK 40 AUDIO
    TITLE "0:"
    INDEX 01 01:25:68
  TRACK 41 AUDIO
    TITLE "2:cjc151_4950"
    INDEX 01 01:27:50
  TRACK 42 AUDIO
    TITLE "0:"
    INDEX 01 01:28:61
  TRACK 43 AUDIO
    TITLE "3:cjc151_4951"
    INDEX 01 01:30:38
  TRACK 44 AUDIO
    TITLE "0:"
    INDEX 01 01:34:20
  TRACK 45 AUDIO
    TITLE "2:cjc151_4952"
    INDEX 01 01:36:00
  TRACK 46 AUDIO
    TITLE "0:"
    INDEX 01 01:37:11
  TRACK 47 AUDIO
    TITLE "3:cjc151_4953"
    INDEX 01 01:38:57
  TRACK 48 AUDIO
    TITLE "0:"
    INDEX 01 01:42:67
  TRACK 49 AUDIO
    TITLE "2:cjc151_4954"
    INDEX 01 01:44:44
  TRACK 50 AUDIO
    TITLE "0:"
    INDEX 01 01:46:10
  TRACK 51 AUDIO
    TITLE "3:cjc151_4955"
    INDEX 01 01:47:62
  TRACK 52 AUDIO
    TITLE "0:"
    INDEX 01 01:51:50
  TRACK 53 AUDIO
    TITLE "2:cjc151_4956"
    INDEX 01 01:53:29
  TRACK 54 AUDIO
    TITLE "0:"
    INDEX 01 01:54:29
  TRACK 55 AUDIO
    TITLE "3:cjc151_4957"
    INDEX 01 01:56:08
  TRACK 56 AUDIO
    TITLE "0:"
    INDEX 01 02:00:39
  TRACK 57 AUDIO
    TITLE "2:cjc151_4958"
    INDEX 01 02:02:18
  TRACK 58 AUDIO
    TITLE "0:"
    INDEX 01 02:03:16
  TRACK 59 AUDIO
    TITLE "3:cjc151_4959"
    INDEX 01 02:05:03
  TRACK 60 AUDIO
    TITLE "0:"
    INDEX 01 02:09:44
  TRACK 61 AUDIO
    TITLE "2:cjc151_4960"
    INDEX 01 02:11:23
  TRACK 62 AUDIO
    TITLE "0:"
    INDEX 01 02:12:48
  TRACK 63 AUDIO
    TITLE "3:cjc151_4961"
    INDEX 01 02:14:31
  TRACK 64 AUDIO
    TITLE "0:"
    INDEX 01 02:17:44
  TRACK 65 AUDIO
    TITLE "2:cjc151_4962"
    INDEX 01 02:19:23
  TRACK 66 AUDIO
    TITLE "0:"
    INDEX 01 02:20:26
  TRACK 67 AUDIO
    TITLE "3:cjc151_4963"
    INDEX 01 02:22:06
  TRACK 68 AUDIO
    TITLE "0:"
    INDEX 01 02:25:67
  TRACK 69 AUDIO
    TITLE "2:cjc151_4964"
    INDEX 01 02:27:44
  TRACK 70 AUDIO
    TITLE "0:"
    INDEX 01 02:28:73
  TRACK 71 AUDIO
    TITLE "3:cjc151_4965"
    INDEX 01 02:30:52
  TRACK 72 AUDIO
    TITLE "0:"
    INDEX 01 02:34:17
  TRACK 73 AUDIO
    TITLE "2:cjc151_4966"
    INDEX 01 02:35:69
  TRACK 74 AUDIO
    TITLE "0:"
    INDEX 01 02:37:07
  TRACK 75 AUDIO
    TITLE "3:cjc151_4967"
    INDEX 01 02:38:61
  TRACK 76 AUDIO
    TITLE "0:"
    INDEX 01 02:43:45
  TRACK 77 AUDIO
    TITLE "2:cjc151_4968"
    INDEX 01 02:45:24
  TRACK 78 AUDIO
    TITLE "0:"
    INDEX 01 02:47:02
  TRACK 79 AUDIO
    TITLE "3:cjc151_4969"
    INDEX 01 02:48:54
  TRACK 80 AUDIO
    TITLE "0:"
    INDEX 01 02:52:69
  TRACK 81 AUDIO
    TITLE "2:cjc151_4970"
    INDEX 01 02:54:51
  TRACK 82 AUDIO
    TITLE "0:"
    INDEX 01 02:56:14
  TRACK 83 AUDIO
    TITLE "3:cjc151_4971"
    INDEX 01 02:57:69
  TRACK 84 AUDIO
    TITLE "0:"
    INDEX 01 03:02:34
  TRACK 85 AUDIO
    TITLE "2:cjc151_4972"
    INDEX 01 03:04:14
  TRACK 86 AUDIO
    TITLE "0:"
    INDEX 01 03:05:15
  TRACK 87 AUDIO
    TITLE "3:cjc151_4973"
    INDEX 01 03:07:02
  TRACK 88 AUDIO
    TITLE "0:"
    INDEX 01 03:10:32
